HIERARCHY
ROOT Hips
{
	OFFSET 0.000000 0.000000 0.000000
	CHANNELS 6 Xposition Yposition Zposition Zrotation Yrotation Xrotation 
	JOINT LHipJoint
	{
		OFFSET 0.000000 0.000000 0.000000
		CHANNELS 3 Zrotation Yrotation Xrotation
		JOINT LeftUpLeg
		{
			OFFSET 1.363060 -1.794630 0.839290
			CHANNELS 3 Zrotation Yrotation Xrotation
			JOINT LeftLeg
			{
				OFFSET 2.448110 -6.726130 0.000000
				CHANNELS 3 Zrotation Yrotation Xrotation
				JOINT LeftFoot
				{
					OFFSET 2.562200 -7.039590 0.000000
					CHANNELS 3 Zrotation Yrotation Xrotation
					JOINT LeftToeBase
					{
						OFFSET 0.157640 -0.433110 2.322550
						CHANNELS 3 Zrotation Yrotation Xrotation
						End Site
						{
							OFFSET 0.000000 0.000000 0.000000
						}
					}
				}
			}
		}
	}
	JOINT RHipJoint
	{
		OFFSET 0.000000 0.000000 0.000000
		CHANNELS 3 Zrotation Yrotation Xrotation
		JOINT RightUpLeg
		{
			OFFSET -1.305520 -1.794630 0.839290
			CHANNELS 3 Zrotation Yrotation Xrotation
			JOINT RightLeg
			{
				OFFSET -2.542530 -6.985550 0.000000
				CHANNELS 3 Zrotation Yrotation Xrotation
				JOINT RightFoot
				{
					OFFSET -2.568260 -7.056230 0.000000
					CHANNELS 3 Zrotation Yrotation Xrotation
					JOINT RightToeBase
					{
						OFFSET -0.164730 -0.452590 2.363150
						CHANNELS 3 Zrotation Yrotation Xrotation
						End Site
						{
							OFFSET 0.000000 0.000000 0.000000
						}
					}
				}
			}
		}
	}
}
MOTION
Frames: 25
Frame Time: 0.008333
2.253397 17.346160 0.471089 8.110694 83.785124 23.681388 -10.191257 0.349328 1.410481 -11.294441 1.238607 -41.875405 -0.957705 1.700383 37.438677 2.907648 15.987477 -3.963827 1.585900 0.000000 -21.056400 8.237760 -1.632043 2.119519 10.648946 3.797662 -7.187331 2.766742 1.598809 3.056856 -1.094547 -2.939994 -10.266164 0.060300 -0.000000 -21.921001
2.529608 17.315686 0.494117 7.721578 83.401646 23.168304 -10.031346 0.255758 1.679325 -11.079494 0.767005 -42.026747 -1.191295 1.374875 33.089029 2.816632 15.278684 -3.700560 1.657500 0.000000 -21.686400 8.305023 -1.668434 1.882928 10.545134 3.139456 -5.301340 2.784566 1.682002 1.841172 -0.970315 -2.413005 -10.013216 0.046100 0.000000 -22.756700
2.808177 17.277049 0.513400 6.384640 82.970460 21.716106 -9.899501 0.172880 1.968496 -10.680976 0.410471 -42.131796 -1.419559 1.027122 28.576425 2.676519 14.397146 -3.185629 1.761600 -0.000000 -22.764700 8.356852 -1.702783 1.637728 10.523021 2.439489 -3.472352 2.817431 1.758669 0.732032 -0.833156 -1.809580 -9.719202 0.030100 0.000001 -23.965300
3.089145 17.230625 0.528968 4.263059 82.501169 19.487422 -9.795866 0.093200 2.266629 -10.128289 0.215695 -42.228220 -1.639591 0.660707 23.990827 2.485180 13.336491 -2.482303 1.864101 0.000000 -24.165600 8.393852 -1.738879 1.390677 10.583613 1.705913 -1.711763 2.864346 1.827451 -0.247152 -0.689582 -1.151909 -9.407519 0.015300 0.000000 -25.517100
3.372294 17.176792 0.541021 1.556190 82.000894 16.670674 -9.716099 0.009655 2.555565 -9.475889 0.233410 -42.340948 -1.851772 0.282138 19.435655 2.241074 12.077609 -1.671753 1.926100 0.000000 -25.814600 8.421195 -1.781488 1.145897 10.716386 0.938580 -0.020974 2.922860 1.884891 -1.071058 -0.545073 -0.457892 -9.103343 0.004099 -0.000000 -27.368500
3.656880 17.116072 0.550151 -1.416781 81.480259 13.552883 -9.653465 -0.084823 2.807794 -8.813746 0.509506 -42.465111 -2.062028 -0.098828 15.026830 1.942717 10.586260 -0.851212 1.906699 0.000000 -27.628200 8.448629 -1.836215 0.893797 10.881899 0.091298 1.617531 2.989462 1.922958 -1.713556 -0.398152 0.286704 -8.809897 -0.003201 0.000000 -29.658100
3.943105 17.049181 0.556586 -4.495159 80.941345 10.297031 -9.600719 -0.195436 3.009432 -8.221119 1.068540 -42.651308 -2.277809 -0.470346 10.897870 1.593602 8.829241 -0.113444 1.777700 0.000000 -29.610300 8.476780 -1.907927 0.648400 11.058094 -0.797759 3.186884 3.059538 1.939164 -2.148141 -0.257433 1.046740 -8.562848 -0.005600 0.000000 -32.191000
4.230260 16.976892 0.561173 -7.326641 80.398090 7.224095 -9.550556 -0.324601 3.141177 -7.803535 1.904828 -42.900554 -2.509008 -0.819629 7.185424 1.201137 6.783402 0.442469 1.523900 -0.000000 -31.688700 8.511584 -1.998404 0.395423 11.173967 -1.784044 4.699960 3.128349 1.925391 -2.349406 -0.117207 1.857555 -8.354249 -0.004800 0.000001 -35.142600
4.518556 16.900423 0.564586 -9.705474 79.859141 4.548865 -9.496331 -0.470141 3.209777 -7.606394 2.943193 -43.241324 -2.754580 -1.138718 3.989426 0.787432 4.504420 0.754752 1.168100 -0.000000 -33.862601 8.551455 -2.104225 0.140263 11.178740 -2.835888 6.136491 3.189847 1.880176 -2.296482 0.018419 2.705511 -8.209694 -0.001900 -0.000000 -38.307500
4.808182 16.821037 0.567462 -11.504695 79.337748 2.411828 -9.432991 -0.624431 3.233129 -7.622417 4.065073 -43.682840 -3.003897 -1.421457 1.382376 0.382366 2.111349 0.779280 0.760000 -0.000000 -36.022400 8.596246 -2.218685 -0.117020 11.028667 -3.931598 7.477395 3.239386 1.803154 -1.979447 0.148912 3.589393 -8.134117 0.000000 0.000000 -41.582001
5.099509 16.740064 0.570417 -12.700485 78.846492 0.862115 -9.360321 -0.776842 3.238684 -7.778454 5.121460 -44.207189 -3.236769 -1.664058 -0.616306 0.019988 -0.203931 0.516404 0.368401 -0.000000 -38.022301 8.645158 -2.333600 -0.372160 10.706064 -5.018880 8.704831 3.273010 1.696476 -1.404463 0.271482 4.488659 -8.128736 -0.002400 -0.000001 -44.763100
5.392991 16.658899 0.574092 -13.316567 78.397610 -0.099569 -9.284325 -0.915315 3.254125 -7.962252 5.964134 -44.759776 -3.430069 -1.863025 -2.033734 -0.269879 -2.214912 0.014453 0.056900 -0.000000 -39.708500 8.698787 -2.442383 -0.621816 10.209419 -6.049003 9.808789 3.287858 1.562313 -0.594796 0.385522 5.383090 -8.164089 -0.011400 0.000000 -47.844300
5.689261 16.578746 0.578814 -13.472306 77.996978 -0.564513 -9.215196 -1.030408 3.299303 -8.054504 6.494943 -45.296688 -3.566722 -2.012008 -2.898187 -0.470419 -3.736054 -0.646681 -0.142100 0.000001 -40.980100 8.753961 -2.541750 -0.853301 9.579768 -6.938286 10.789195 3.282565 1.405370 0.406808 0.486800 6.220839 -8.209468 -0.026500 0.000000 -50.705000
5.988932 16.500793 0.584908 -13.266259 77.649475 -0.613127 -9.163682 -1.114755 3.385114 -7.961041 6.654710 -45.775037 -3.636038 -2.103497 -3.241834 -0.574811 -4.635793 -1.361606 -0.229000 0.000000 -41.835200 8.808064 -2.631390 -1.055913 8.865049 -7.621014 11.654632 3.256169 1.229154 1.550567 0.573349 6.954446 -8.213851 -0.042900 0.000000 -53.383601
6.292654 16.426008 0.592375 -12.821818 77.357895 -0.351671 -9.137625 -1.163981 3.516215 -7.623004 6.425038 -46.187610 -3.633559 -2.129456 -3.079785 -0.584192 -4.858276 -2.020380 -0.226900 -0.000000 -42.350100 8.856723 -2.714343 -1.216213 8.132436 -8.031506 12.413301 3.208374 1.037035 2.786252 0.641994 7.523419 -8.124614 -0.051900 0.000000 -55.923700
6.600846 16.355245 0.601267 -12.192253 77.128153 0.171557 -9.140206 -1.174404 3.692466 -7.031614 5.807509 -46.542704 -3.558193 -2.083616 -2.425328 -0.502984 -4.407232 -2.510988 -0.162700 -0.000001 -42.640700 8.899077 -2.795022 -1.329310 7.424702 -8.156936 13.066691 3.138319 0.829119 4.086103 0.693084 7.897162 -7.882826 -0.043800 0.000000 -58.514800
6.913375 16.289179 0.612172 -11.290308 76.973278 1.026718 -9.168495 -1.142043 3.904535 -6.257589 4.830705 -46.858495 -3.415756 -1.962032 -1.287059 -0.340750 -3.357497 -2.727777 -0.052900 0.000000 -42.824300 8.941581 -2.877079 -1.404138 6.721489 -8.067219 13.607665 3.042973 0.601551 5.459325 0.732213 8.104073 -7.432127 -0.011400 -0.000000 -61.426300
7.230423 16.228316 0.624594 -10.184487 76.893906 2.144361 -9.216637 -1.069284 4.137673 -5.402393 3.594101 -47.227202 -3.220013 -1.761659 0.362251 -0.119897 -1.887332 -2.588430 0.099900 -0.000000 -43.003300 8.982777 -2.968635 -1.433105 6.059838 -7.774168 14.017758 2.920111 0.353253 6.918004 0.756036 8.111996 -6.730731 0.049700 0.000000 -64.703500
7.551153 16.172936 0.639301 -8.704519 76.897449 3.656546 -9.276452 -0.960051 4.364053 -4.638271 2.215421 -47.683985 -2.991250 -1.485761 2.509876 0.130006 -0.207047 -2.022740 0.306200 -0.000000 -43.230299 9.033449 -3.073704 -1.432316 5.370339 -7.406358 14.279930 2.763174 0.078462 8.513744 0.770043 7.984563 -5.731684 0.140400 0.000000 -68.539300
7.874698 16.123186 0.656303 -6.824200 76.978358 5.562472 -9.342253 -0.826511 4.553312 -4.115522 0.854141 -48.271542 -2.751698 -1.142184 5.136506 0.371234 1.440015 -1.012622 0.571001 -0.000000 -43.465500 9.098044 -3.198013 -1.407253 4.634954 -7.039949 14.377198 2.566428 -0.224748 10.290007 0.771876 7.735980 -4.397765 0.259800 -0.000000 -72.928400
8.199734 16.079019 0.675790 -4.495038 77.129955 7.884269 -9.410320 -0.684834 4.683063 -3.930659 -0.372695 -48.971013 -2.515604 -0.749076 8.157397 0.576106 2.883819 0.398730 0.886200 0.000000 -43.545000 9.183461 -3.343873 -1.369683 3.824453 -6.762066 14.290204 2.323863 -0.556546 12.294518 0.757641 7.390710 -2.700812 0.405700 -0.000001 -77.780500
8.524908 16.040471 0.697032 -1.838520 77.338304 10.499254 -9.478124 -0.552593 4.748692 -4.073727 -1.398884 -49.745277 -2.285410 -0.332313 11.447254 0.733360 4.040636 2.090431 1.225800 0.000000 -43.237100 9.290989 -3.510512 -1.323606 2.972694 -6.600417 13.992511 2.032398 -0.911225 14.561238 0.715739 6.923069 -0.626232 0.570601 0.000000 -82.817700
8.848502 16.007581 0.719942 1.167868 77.599377 13.430197 -9.538843 -0.442989 4.757771 -4.507924 -2.239450 -50.518081 -2.062511 0.076651 14.845488 0.849360 4.923795 3.882494 1.558500 0.000000 -42.353300 9.430073 -3.690474 -1.280726 2.064447 -6.610599 13.448871 1.690049 -1.279896 17.128801 0.635761 6.342220 1.817908 0.743601 -0.000000 -87.671400
9.168947 15.980514 0.743873 4.455273 77.904901 16.625363 -9.583862 -0.363923 4.724886 -5.159534 -2.929188 -51.238522 -1.849642 0.451897 18.219169 0.935705 5.578809 5.563578 1.853600 -0.000000 -40.881000 9.607166 -3.871708 -1.242721 1.124798 -6.793985 12.625356 1.301255 -1.646744 20.014740 0.503292 5.621883 4.596743 0.903199 0.000000 -91.827300
9.484585 15.959425 0.768660 8.054005 78.248969 20.129424 -9.601300 -0.317054 4.662460 -5.977091 -3.522141 -51.858726 -1.654174 0.775971 21.462965 1.004103 6.074193 6.940717 2.093700 0.000000 -38.997500 9.833618 -4.037834 -1.210602 0.156440 -7.143588 11.502760 0.878849 -1.993253 23.219143 0.307205 4.747043 7.635494 1.018300 0.000000 -94.718800
